<svg id="Capa_1" enable-background="new 0 0 512 512" height="512" viewBox="0 0 512 512" width="512" xmlns="http://www.w3.org/2000/svg"><g><path d="m330.431 126.881v-65.07l-62.841 46.358v18.712c0 13.126-5.011 25.756-14.009 35.312l-32.988 35.032c-7.199 7.645-11.207 17.749-11.207 28.25v240.167c0 25.603 20.755 46.358 46.358 46.358h107.139c14.224 0 25.755-11.531 25.755-25.755v-260.77c0-10.501-4.009-20.605-11.207-28.25l-32.988-35.032c-9.002-9.556-14.012-22.186-14.012-35.312z" fill="#bcf1f8"/><path d="m417.481 225.476v260.77c0 14.227-11.528 25.755-25.755 25.755h-30.905c14.227 0 25.755-11.528 25.755-25.755v-260.77c0-10.498-4.007-20.604-11.208-28.248l-32.986-35.036c-9.004-9.55-14.01-22.19-14.01-35.315v-65.066l30.905 46.358v18.708c0 13.124 5.007 25.765 14.01 35.315l32.986 35.036c7.2 7.644 11.208 17.75 11.208 28.248z" fill="#8ef0f0"/><path d="m352.579 481.095h-107.138c-2.845 0-5.151-2.306-5.151-5.151v-237.972c0-2.845 2.306-5.151 5.151-5.151h107.139c2.845 0 5.151 2.306 5.151 5.151v237.972c-.001 2.844-2.307 5.151-5.152 5.151z" fill="#fff"/><path d="m386.575 237.972v237.972c0 2.843-2.308 5.151-5.151 5.151h-30.905c2.843 0 5.151-2.308 5.151-5.151v-237.972c0-2.843-2.308-5.151-5.151-5.151h30.905c2.844 0 5.151 2.308 5.151 5.151z" fill="#f4f4f4"/><path d="m314.978 0h-31.936c-8.534 0-15.453 6.918-15.453 15.453v15.453l31.421 10.534 31.421-10.535v-15.452c0-8.535-6.919-15.453-15.453-15.453z" fill="#ffc263"/><path d="m359.276 15.453v15.453l-14.398 10.534-16.508-10.535v-15.452c0-8.53-6.923-15.453-15.452-15.453h30.905c8.53 0 15.453 6.923 15.453 15.453z" fill="#ffaa5a"/><path d="m352.924 481.095h-107.483c-2.845 0-5.151-2.306-5.151-5.151v-25.755h115.38l21.491 22.077z" fill="#fcf1f2"/><path d="m386.575 450.189v25.755c0 2.843-2.308 5.151-5.151 5.151h-30.905c2.843 0 5.151-2.308 5.151-5.151v-25.755z" fill="#f4e5e0"/><path d="m328.37 108.169h-60.78v-46.358l69.492-15.453 2.859 44.455z" fill="#fcf1f2"/><path d="m359.276 61.811v46.358h-30.906v-46.358l14.854-11.04z" fill="#f4e5e0"/><path d="m336.612 61.811h-74.173c-5.69 0-10.302-4.612-10.302-10.302v-10.302c0-5.69 4.612-10.302 10.302-10.302h74.173c5.69 0 10.302 4.612 10.302 10.302v10.302c-.001 5.69-4.613 10.302-10.302 10.302z" fill="#7de8f9"/><path d="m374.728 41.207v10.302c0 5.687-4.615 10.302-10.302 10.302h-30.905c5.687 0 10.302-4.615 10.302-10.302v-10.302c0-5.687-4.615-10.302-10.302-10.302h30.905c5.687 0 10.302 4.616 10.302 10.302z" fill="#00ddf9"/><path d="m265.929 265.229s-3.463-1.24-4.944-1.28c-28.923 2.559-51.601 26.85-51.601 56.437l-10.302 19.573h19.573c31.292 0 56.66-25.368 56.66-56.66v-9.272c.001-5.688-5.157-8.016-9.386-8.798z" fill="#9ae59c"/><path d="m300.04 274.028v9.272c0 31.297-25.363 56.66-56.66 56.66h-30.905c31.297 0 56.66-25.363 56.66-56.66v-9.272c0-4.945-3.492-9.086-8.149-10.075 1.659-.154 3.348-.227 5.058-.227h23.694c5.687 0 10.302 4.616 10.302 10.302z" fill="#80cf80"/><path d="m129.03 263.726h23.694c31.292 0 56.66 25.368 56.66 56.66v19.573h-33.996c-31.292 0-56.66-25.368-56.66-56.66v-9.272c0-5.688 4.613-10.301 10.302-10.301z" fill="#baf39a"/><path d="m246.37 329.042s-5.422-.385-6.37-.327c-9.156.559-17.59 3.78-24.546 8.895-3.61 2.654-8.529 2.654-12.139 0-7.677-5.644-17.152-8.983-27.411-8.983h-24.724c-31.292 0-56.66 25.368-56.66 56.66v54.6c0 39.827 32.286 72.113 72.113 72.113h9.272c10.259 0 19.735-3.338 27.411-8.983 3.61-2.654 8.529-2.654 12.139 0 5.21 3.831 11.249 6.6 17.8 7.983 4.061.072 19.026-1.294 19.026-1.294 42.756-16.732 50.079-29.583 50.079-69.409l.258-55.01c-.002-31.292-24.956-56.245-56.248-56.245z" fill="#ff8d95"/><path d="m324.25 385.288v54.6c0 39.827-32.286 72.113-72.113 72.113h-9.272c-3.297 0-6.511-.34-9.612-.999 34.109-5.728 60.09-35.387 60.09-71.113v-54.6c0-30.184-23.591-54.847-53.343-56.557.948-.072 1.906-.103 2.864-.103h24.724c31.298-.001 56.662 25.362 56.662 56.659z" fill="#ff738a"/></g></svg>